<svg xmlns="http://www.w3.org/2000/svg" version="1.1" xmlns:xlink="http://www.w3.org/1999/xlink" xmlns:svgjs="http://svgjs.dev/svgjs" width="2000" height="1500" viewBox="0 0 2000 1500"><rect width="2000" height="1500" fill="#ffffff"></rect><g transform="matrix(0.75,0,0,0.75,249.090909090909,379.9991374074342)"><svg viewBox="0 0 396 195" data-background-color="#ffffff" preserveAspectRatio="xMidYMid meet" height="984" width="2000" xmlns="http://www.w3.org/2000/svg" xmlns:xlink="http://www.w3.org/1999/xlink"><g id="tight-bounds" transform="matrix(1,0,0,1,0.2400000000000091,0.264455563076325)"><svg viewBox="0 0 395.52 161.59939148273259" height="161.59939148273259" width="395.52"><g><svg viewBox="0 0 395.52 161.59939148273259" height="161.59939148273259" width="395.52"><g><svg viewBox="0 0 395.52 161.59939148273259" height="161.59939148273259" width="395.52"><g id="textblocktransform"><svg viewBox="0 0 395.52 161.59939148273259" height="161.59939148273259" width="395.52" id="textblock"><g><rect width="395.52" height="138.49675914301568" fill="none" stroke-width="8.962371322224001" stroke="#233565" data-fill-palette-color="none" data-stroke-palette-color="tertiary"></rect><rect width="395.52" height="55.974329730831684" y="138.49675914301568" fill="#233565" data-fill-palette-color="tertiary"></rect></g><g><svg viewBox="0 0 395.52 137.49675914301568" height="137.49675914301568" width="395.52"><g transform="matrix(1,0,0,1,23.461705032,23.46170503200001)"><svg width="348.596589936" viewBox="2.29 -24.07 119.04695652173912 30.93" height="90.57334907901567" data-palette-color="#233565"><path d="M5.44-19.19L5.44 0 2.29 0 2.29-23.75 5.44-23.75 5.44-21.53 6.05-21.53Q6.88-22.83 8-23.45 9.11-24.07 11.06-24.07L11.06-24.07Q14.99-24.07 15.89-21.34L15.89-21.34 16.55-21.34Q17.36-22.61 18.6-23.34 19.85-24.07 21.8-24.07L21.8-24.07Q24.41-24.07 25.71-22.86 27-21.66 27-18.82L27-18.82 27 0 23.88 0 23.88-19.09Q23.83-20.31 23.12-20.86 22.41-21.41 20.78-21.41L20.78-21.41Q17.53-21.41 16.26-19.12L16.26-19.12 16.26 0 13.13 0 13.13-19.09Q13.09-20.31 12.38-20.86 11.67-21.41 10.08-21.41L10.08-21.41Q6.62-21.41 5.44-19.19L5.44-19.19ZM36.96 0.27L36.96 0.27Q33.98 0.27 32.55-0.9 31.13-2.08 30.88-4.57L30.88-4.57Q30.86-5.05 30.82-5.54 30.78-6.03 30.83-6.49L30.83-6.49Q31-8.67 32.2-10.14 33.4-11.62 36.74-12.84L36.74-12.84Q38.11-13.33 39.62-13.72 41.14-14.11 42.62-14.48L42.62-14.48 42.62-18.99Q42.62-20.19 41.72-20.76 40.82-21.34 38.57-21.34L38.57-21.34Q36.62-21.34 35.61-20.85 34.59-20.36 34.49-19.07L34.49-19.07Q34.45-18.46 34.45-17.32 34.45-16.19 34.49-15.41L34.49-15.41 31.44-15.41Q31.39-16.02 31.35-16.99 31.3-17.97 31.37-18.73L31.37-18.73Q31.49-21.56 33.21-22.81 34.93-24.07 38.69-24.07L38.69-24.07Q42.62-24.07 44.15-22.71 45.68-21.34 45.7-18.21L45.7-18.21 45.7 0 42.62 0 42.62-2.25 41.94-2.25Q41.33-1.03 40.2-0.38 39.06 0.27 36.96 0.27ZM37.74-2.37L37.74-2.37Q41.26-2.37 42.6-4.47L42.6-4.47 42.6-11.87Q41.43-11.62 40.2-11.29 38.96-10.96 37.3-10.4L37.3-10.4Q35.32-9.67 34.67-8.72 34.01-7.76 33.91-6.49L33.91-6.49Q33.93-6.13 33.95-5.7 33.96-5.27 34.01-4.81L34.01-4.81Q34.18-3.64 35.18-3 36.18-2.37 37.74-2.37ZM53.34-19.19L53.34 0 50.19 0 50.19-23.75 53.34-23.75 53.34-21.53 54.1-21.53Q54.85-22.75 56.09-23.41 57.32-24.07 59.2-24.07L59.2-24.07Q61.96-24.07 63.3-22.86 64.64-21.66 64.64-18.82L64.64-18.82 64.64 0 61.52 0 61.52-19.09Q61.52-20.31 60.75-20.86 59.98-21.41 58.27-21.41L58.27-21.41Q56.56-21.41 55.27-20.83 53.97-20.24 53.34-19.19L53.34-19.19ZM74.6 0.27L74.6 0.27Q71.62 0.27 70.2-0.9 68.77-2.08 68.52-4.57L68.52-4.57Q68.5-5.05 68.46-5.54 68.43-6.03 68.47-6.49L68.47-6.49Q68.64-8.67 69.84-10.14 71.04-11.62 74.38-12.84L74.38-12.84Q75.75-13.33 77.26-13.72 78.78-14.11 80.27-14.48L80.27-14.48 80.27-18.99Q80.27-20.19 79.36-20.76 78.46-21.34 76.21-21.34L76.21-21.34Q74.26-21.34 73.25-20.85 72.23-20.36 72.14-19.07L72.14-19.07Q72.09-18.46 72.09-17.32 72.09-16.19 72.14-15.41L72.14-15.41 69.08-15.41Q69.04-16.02 68.99-16.99 68.94-17.97 69.01-18.73L69.01-18.73Q69.13-21.56 70.85-22.81 72.58-24.07 76.34-24.07L76.34-24.07Q80.27-24.07 81.79-22.71 83.32-21.34 83.34-18.21L83.34-18.21 83.34 0 80.27 0 80.27-2.25 79.58-2.25Q78.97-1.03 77.84-0.38 76.7 0.27 74.6 0.27ZM75.38-2.37L75.38-2.37Q78.9-2.37 80.24-4.47L80.24-4.47 80.24-11.87Q79.07-11.62 77.84-11.29 76.6-10.96 74.94-10.4L74.94-10.4Q72.97-9.67 72.31-8.72 71.65-7.76 71.55-6.49L71.55-6.49Q71.57-6.13 71.59-5.7 71.6-5.27 71.65-4.81L71.65-4.81Q71.82-3.64 72.82-3 73.82-2.37 75.38-2.37ZM94.52 6.86L94.52 6.86Q91.2 6.86 89.17 6.03 87.15 5.2 87.03 3.42L87.03 3.42Q87.03 3.22 87 2.95 86.98 2.69 86.98 2.39L86.98 2.39Q87.07 1.32 88.06 0.66 89.05 0 90.35-0.15L90.35-0.15 90.35-0.76Q87.93-1.27 87.86-2.86L87.86-2.86Q87.83-3.27 87.86-3.69L87.86-3.69Q87.88-4.52 88.63-5.08 89.37-5.64 90.3-5.74L90.3-5.74 90.3-6.35Q87.76-7.45 87.59-11.21L87.59-11.21Q87.51-12.67 87.48-13.76 87.44-14.84 87.47-15.95 87.49-17.07 87.59-18.58L87.59-18.58Q87.71-21.48 89.28-22.78 90.86-24.07 94.33-24.07L94.33-24.07Q96.87-24.07 98.35-23.49 99.84-22.9 100.5-21.66L100.5-21.66 101.19-21.66Q101.36-23.75 104.34-23.75L104.34-23.75 104.34-21.02 103.48-21.02Q101.31-21.02 101.21-18.51L101.21-18.51 101.16-16.58Q101.21-15.16 101.21-14.01 101.21-12.87 101.06-11.21L101.06-11.21Q100.94-8.25 99.4-6.98 97.87-5.71 94.33-5.71L94.33-5.71Q92.28-5.74 91.35-5.4 90.42-5.05 90.42-4.27L90.42-4.27 90.42-4.08Q90.47-3.37 91.45-3.08 92.42-2.78 94.69-2.73L94.69-2.73Q98.33-2.64 100.27-1.7 102.21-0.76 102.38 1.42L102.38 1.42 102.38 2.69Q102.21 4.98 100.04 5.92 97.87 6.86 94.52 6.86ZM94.33-8.47L94.33-8.47Q96.28-8.47 97.1-9.01 97.91-9.55 97.99-10.77L97.99-10.77Q98.11-12.5 98.11-14.81 98.11-17.11 97.99-19.02L97.99-19.02Q97.91-20.31 97.08-20.83 96.25-21.34 94.33-21.34L94.33-21.34Q92.4-21.34 91.57-20.81 90.74-20.29 90.64-18.99L90.64-18.99Q90.37-14.36 90.64-10.82L90.64-10.82Q90.74-9.62 91.59-9.05 92.45-8.47 94.33-8.47ZM94.59 4.27L94.59 4.27Q96.69 4.27 98.02 3.88 99.36 3.49 99.45 2.49L99.45 2.49Q99.48 2.22 99.47 1.99 99.45 1.76 99.45 1.51L99.45 1.51Q99.36 0.46 98.05 0.16 96.74-0.15 94.59-0.2L94.59-0.2Q92.52-0.24 91.29 0.12 90.05 0.49 89.93 1.54L89.93 1.54 89.93 2.49Q90.05 3.56 91.3 3.92 92.54 4.27 94.59 4.27ZM114.03 0.29L114.03 0.29Q110 0.29 108.28-0.98 106.55-2.25 106.43-5.13L106.43-5.13Q106.34-6.93 106.3-9.38 106.26-11.82 106.3-14.28 106.34-16.75 106.43-18.58L106.43-18.58Q106.55-21.53 108.32-22.8 110.09-24.07 114.03-24.07L114.03-24.07Q117.74-24.07 119.4-22.83 121.06-21.58 121.23-18.73L121.23-18.73Q121.28-17.87 121.33-15.75 121.37-13.62 121.18-11.23L121.18-11.23 109.48-11.23Q109.48-9.69 109.51-8.11 109.53-6.52 109.61-4.81L109.61-4.81Q109.63-3.47 110.63-2.95 111.63-2.44 113.93-2.44L113.93-2.44Q116.2-2.44 117.13-2.95 118.05-3.47 118.15-4.81L118.15-4.81Q118.22-6.15 118.15-8.47L118.15-8.47 121.18-8.47Q121.3-7.76 121.29-6.82 121.28-5.88 121.23-5.13L121.23-5.13Q121.06-2.25 119.48-0.98 117.91 0.29 114.03 0.29ZM109.48-13.82L109.48-13.82 118.2-13.82Q118.25-15.48 118.25-16.99 118.25-18.51 118.15-19.07L118.15-19.07Q118.05-20.29 117.1-20.81 116.15-21.34 114.03-21.34L114.03-21.34Q111.66-21.34 110.64-20.81 109.63-20.29 109.61-19.07L109.61-19.07Q109.53-17.65 109.5-16.36 109.46-15.06 109.48-13.82Z" opacity="1" transform="matrix(1,0,0,1,0,0)" fill="#233565" class="wordmark-text-0" data-fill-palette-color="primary" id="text-0"></path></svg></g></svg></g><g transform="matrix(1,0,0,1,75.54432,137.49675914301568)"><svg viewBox="0 0 244.43135999999998 24.102632339716905" height="24.102632339716905" width="244.43135999999998"><g transform="matrix(1,0,0,1,20,3.2)"><svg width="204.43135999999998" viewBox="4 -35.7 420.32 36.400000000000006" height="17.702632339716903" data-palette-color="#ffffff"><path d="M34.1-4.3L34.4-4.3 34.1-1.25Q32.7-0.65 30.7-0.2 28.7 0.25 26.65 0.48 24.6 0.7 23 0.7L23 0.7Q18.95 0.7 15.5-0.68 12.05-2.05 9.47-4.5 6.9-6.95 5.45-10.28 4-13.6 4-17.5L4-17.5Q4-21.4 5.45-24.73 6.9-28.05 9.47-30.5 12.05-32.95 15.5-34.33 18.95-35.7 23-35.7L23-35.7Q24.65-35.7 26.7-35.45 28.75-35.2 30.7-34.77 32.65-34.35 34-33.8L34-33.8 33.75-31 33.45-31Q31.6-32.7 28.8-33.6 26-34.5 23-34.5L23-34.5Q18.5-34.5 15.08-32.38 11.65-30.25 9.73-26.43 7.8-22.6 7.8-17.5L7.8-17.5Q7.8-12.35 9.73-8.55 11.65-4.75 15.05-2.63 18.45-0.5 23-0.5L23-0.5Q26.4-0.5 29.33-1.6 32.25-2.7 34.1-4.3L34.1-4.3ZM47.8 0L44.4 0 44.4-35 47.8-35 47.8-18.8 68.8-18.8 68.8-35 72.2-35 72.2 0 68.8 0 68.8-17.6 47.8-17.6 47.8 0ZM83.65 0L80 0 93.45-35 96.55-35 110 0 106.35 0 100.15-16.4 88.8-16.4 83.65 0ZM94.1-32.4L93.8-32.4 89.15-17.6 99.7-17.6 94.1-32.4ZM120.74 0L117.34 0 118.59-35.7 119.19-35.7 144.34-5.3 144.64-5.3 143.54-35 146.94-35 145.69 0.7 145.09 0.7 119.94-29.7 119.64-29.7 120.74 0ZM185.89-16.6L176.64-16.6 176.64-17.8 189.29-17.8 189.29-4.2Q186.99-1.9 183.66-0.6 180.34 0.7 176.24 0.7L176.24 0.7Q172.04 0.7 168.49-0.68 164.94-2.05 162.29-4.53 159.64-7 158.16-10.3 156.69-13.6 156.69-17.5L156.69-17.5Q156.69-21.4 158.16-24.7 159.64-28 162.29-30.48 164.94-32.95 168.49-34.33 172.04-35.7 176.24-35.7L176.24-35.7Q178.04-35.7 180.16-35.45 182.29-35.2 184.24-34.77 186.19-34.35 187.54-33.75L187.54-33.75 187.29-30.95 186.99-30.95Q184.99-32.7 182.19-33.6 179.39-34.5 176.24-34.5L176.24-34.5Q171.54-34.5 167.99-32.38 164.44-30.25 162.47-26.43 160.49-22.6 160.49-17.5L160.49-17.5Q160.49-12.4 162.47-8.58 164.44-4.75 167.99-2.63 171.54-0.5 176.24-0.5L176.24-0.5Q179.14-0.5 181.62-1.3 184.09-2.1 185.89-3.6L185.89-3.6 185.89-16.6ZM216.19 0L200.79 0 200.79-35 216.04-35 216.04-32.55 207.29-33.7Q204.99-34 204.19-34L204.19-34 204.19-18.75Q204.84-18.75 207.29-18.9L207.29-18.9 215.49-19.4 215.49-17.1 207.29-17.6Q204.84-17.75 204.19-17.75L204.19-17.75 204.19-1Q205.09-1 207.34-1.3L207.34-1.3 216.19-2.45 216.19 0ZM243.58 0L240.18 0 240.18-35 254.88-35 254.88-32.55 246.58-33.7Q244.33-34 243.58-34L243.58-34 243.58-18.35Q244.38-18.35 246.68-18.5L246.68-18.5 254.33-19 254.33-16.7 246.68-17.2Q244.38-17.35 243.58-17.35L243.58-17.35 243.58 0ZM264.13-14L264.13-35 267.53-35 267.53-13.9Q267.53-7.85 270.5-4.48 273.48-1.1 278.88-1.1L278.88-1.1Q282.28-1.1 284.81-2.43 287.33-3.75 288.7-6.1 290.08-8.45 289.98-11.5L289.98-11.5 289.13-35 292.53-35 291.68-11.5Q291.48-5.5 288.11-2.4 284.73 0.7 278.48 0.7L278.48 0.7Q271.73 0.7 267.93-3.23 264.13-7.15 264.13-14L264.13-14ZM315.93 0L312.53 0 312.53-34Q311.78-34 309.43-33.7L309.43-33.7 299.63-32.45 299.63-35 328.83-35 328.83-32.45 319.03-33.7Q316.68-34 315.93-34L315.93-34 315.93 0ZM336.42-14L336.42-35 339.82-35 339.82-13.9Q339.82-7.85 342.8-4.48 345.77-1.1 351.17-1.1L351.17-1.1Q354.57-1.1 357.1-2.43 359.62-3.75 361-6.1 362.37-8.45 362.27-11.5L362.27-11.5 361.42-35 364.82-35 363.97-11.5Q363.77-5.5 360.4-2.4 357.02 0.7 350.77 0.7L350.77 0.7Q344.02 0.7 340.22-3.23 336.42-7.15 336.42-14L336.42-14ZM376.82 0L376.82-35 383.52-35Q388.82-35 391.75-32.77 394.67-30.55 394.67-26.55L394.67-26.55Q394.67-23.45 392.85-21.4 391.02-19.35 387.57-18.65L387.57-18.65 387.57-18.35Q390.87-17.7 392.97-15.25 395.07-12.8 396.12-9.2L396.12-9.2Q397.07-5.9 398-4.08 398.92-2.25 400.05-1.45 401.17-0.65 402.72-0.3L402.72-0.3 402.72 0 400.67 0Q398.47 0 397.05-0.8 395.62-1.6 394.62-3.5 393.62-5.4 392.72-8.75L392.72-8.75Q391.27-13.9 388.87-16.05 386.47-18.2 383.02-18.2L383.02-18.2 382.72-18.2 382.72-19.1 383.02-19.1Q391.07-19.1 391.07-26.5L391.07-26.5Q391.07-33.8 383.52-33.8L383.52-33.8 380.22-33.8 380.22 0 376.82 0ZM424.32 0L408.92 0 408.92-35 424.17-35 424.17-32.55 415.42-33.7Q413.12-34 412.32-34L412.32-34 412.32-18.75Q412.97-18.75 415.42-18.9L415.42-18.9 423.62-19.4 423.62-17.1 415.42-17.6Q412.97-17.75 412.32-17.75L412.32-17.75 412.32-1Q413.22-1 415.47-1.3L415.47-1.3 424.32-2.45 424.32 0Z" opacity="1" transform="matrix(1,0,0,1,0,0)" fill="#ffffff" class="slogan-text-1" data-fill-palette-color="quaternary" id="text-1"></path></svg></g></svg></g></svg></g></svg></g></svg></g><defs></defs></svg><rect width="395.52" height="161.59939148273259" fill="none" stroke="none" visibility="hidden"></rect></g></svg></g></svg>